<svg xmlns="http://www.w3.org/2000/svg" width="320" height="320" viewBox="0 0 320 320" version="1.1"><path d="M 239.841 21.975 C 213.023 30.076, 200.216 90.178, 221.353 108.737 C 230.842 117.069, 238.436 114.019, 233.511 103.855 C 222.285 80.687, 226.376 53.337, 243.984 33.838 C 252.575 24.325, 250.618 18.720, 239.841 21.975 M 56.763 39.750 C 34.685 56.809, 38.826 108.084, 62.497 110.753 C 68.765 111.459, 69.103 109.611, 64.109 101.926 C 52.876 84.638, 52.621 63.927, 63.435 47 C 69.517 37.480, 65.438 33.047, 56.763 39.750 M 247.500 45.850 C 234.393 54.082, 230.270 79.884, 240.611 88.963 C 247.015 94.586, 249.135 91.571, 245.507 82 C 241.946 72.606, 244.669 60.002, 252.085 51.556 C 257.212 45.717, 254.026 41.751, 247.500 45.850 M 67.041 54.959 C 56.328 65.672, 59.234 92, 71.130 92 C 75.134 92, 75.532 90.375, 72.572 86.104 C 66.665 77.580, 66.502 66.967, 72.153 58.846 C 75.881 53.488, 71.696 50.304, 67.041 54.959 M 251.399 61.514 C 247.789 67.023, 248.744 77, 252.880 77 C 257.086 77, 260.302 68.324, 258.604 61.560 C 257.733 58.089, 253.660 58.063, 251.399 61.514" stroke="none" fill="#0c63a0" fill-rule="evenodd"/><path d="M 165.526 54.988 C 152.950 55.639, 150.387 56.039, 149.526 57.485 C 148.962 58.433, 146.092 63.046, 143.148 67.738 C 124.187 97.959, 118.511 138.479, 129.417 165.750 L 132.717 174 126.834 174 L 120.952 174 121.226 190.688 L 121.500 207.377 126.500 207.438 L 131.500 207.500 131.788 197.633 C 132.170 184.519, 140.100 185.934, 155.121 201.794 C 160.959 207.959, 161.179 208.083, 165.791 207.793 L 170.500 207.497 170.774 190.749 L 171.048 174 165.524 174 C 160 174, 160 174, 159.945 179.750 L 159.891 185.500 157.880 180.541 C 152.790 167.988, 156.315 161.895, 172.500 155.268 C 175.392 154.084, 175.339 154.059, 171.042 154.565 C 158.084 156.091, 152.500 162.243, 152.500 174.994 L 152.500 183.648 147 180.457 C 129.060 170.048, 124.769 116.177, 139.364 84.588 C 144.489 73.497, 145.202 73.689, 146.465 86.500 C 149.776 120.083, 170.806 143.500, 197.654 143.500 C 203.788 143.500, 208.631 143.785, 208.416 144.134 C 207.343 145.875, 197.484 149.444, 189.076 151.135 C 178.026 153.358, 176.810 154, 183.650 154 C 200.995 154, 215.930 146.577, 224.053 133.917 C 228.294 127.308, 227.544 127.049, 219.363 132.298 C 187.401 152.807, 156.375 128.066, 150.873 77.683 C 149.564 65.695, 148.455 66.670, 164.317 65.858 C 195.810 64.246, 210.890 64.896, 211.131 67.875 C 211.204 68.769, 211.626 66.360, 212.071 62.523 C 213.113 53.522, 208.438 52.765, 165.526 54.988 M 139.500 57.714 C 105.121 60.863, 72 67.605, 72 71.453 C 72 76.917, 73.379 77.012, 94.623 73.008 C 103.355 71.362, 116.800 69.316, 124.500 68.460 C 141.589 66.561, 140.479 66.941, 142.926 62.145 C 145.140 57.806, 144.700 57.238, 139.500 57.714 M 168.770 99.966 C 160.287 106.639, 163.936 123.933, 173.887 124.216 C 180.845 124.414, 185.267 118.448, 184.717 109.601 C 184.109 99.805, 175.550 94.633, 168.770 99.966 M 51.193 174.648 C 51.500 179.405, 51.500 179.405, 55.789 179.508 C 64.625 179.720, 65.017 170.702, 56.193 170.196 C 50.886 169.892, 50.886 169.892, 51.193 174.648 M 9.479 174.381 C 0.062 177.361, 0 177.483, 0 193.096 C 0 206.962, 0 206.962, 2.655 207.628 C 6.941 208.704, 8.463 206.979, 8.799 200.669 L 9.098 195.045 27.299 194.772 L 45.500 194.500 45.500 190.500 L 45.500 186.500 27.500 186 C 4.800 185.369, 5.631 183.708, 29 183 L 45.500 182.500 45.500 178 L 45.500 173.500 29.500 173.305 C 18.811 173.174, 12.165 173.532, 9.479 174.381 M 80.500 174.430 C 71.352 177.251, 66.105 182.622, 66.022 189.250 C 65.978 192.730, 78.606 191.722, 79.312 188.189 C 81.419 177.655, 86.254 183.046, 85.858 195.487 C 85.503 206.632, 85.689 207.223, 89.731 207.765 C 96.715 208.700, 97 208.199, 97 194.981 L 97 183 106.555 183 L 116.110 183 115.805 178.250 L 115.500 173.500 100 173.348 C 90.115 173.252, 83.051 173.644, 80.500 174.430 M 190.939 174.352 C 178.539 177.731, 175.851 181.870, 176.234 197 C 176.469 206.288, 176.702 207.486, 178.250 207.375 C 179.213 207.306, 190.350 207.194, 203 207.125 L 226 207 226 202.500 L 226 198 207.500 198 C 191.848 198, 189 197.773, 189 196.523 C 189 195.283, 191.941 195.001, 207.250 194.773 L 225.500 194.500 225.500 190.500 L 225.500 186.500 207 186 C 182.941 185.350, 185.842 183, 210.704 183 L 226.110 183 225.805 178.250 L 225.500 173.500 210.500 173.305 C 201.053 173.182, 193.812 173.569, 190.939 174.352 M 247.500 173.994 C 237.272 175.517, 231.949 180.570, 231.212 189.459 L 230.752 195 248.576 195 C 273.024 195, 272.057 197.334, 247.401 197.837 L 230.898 198.174 231.199 202.682 L 231.500 207.191 248.953 207.052 C 272.686 206.864, 278.104 204.389, 279.933 192.896 C 281.092 185.617, 282.075 186, 262.241 186 C 237.952 186, 239.037 183.655, 263.545 183.183 C 281.751 182.832, 284.182 181.484, 279.663 174.250 C 278.788 172.850, 256.380 172.672, 247.500 173.994 M 300.718 174.072 C 290.995 176.411, 286.791 180.735, 286.193 189.014 L 285.760 195 302.880 195 L 320 195 320 190.500 L 320 186 309.250 185.919 C 299.311 185.844, 298.726 185.734, 301.500 184.464 C 303.191 183.690, 307.907 183.071, 312.305 183.045 L 320.110 183 319.805 178.250 C 319.480 173.189, 311.579 171.460, 300.718 174.072 M 50.810 194.038 C 50.471 207.306, 50.611 207.667, 56.156 207.827 C 61.595 207.983, 62.105 206.717, 61.784 193.857 L 61.500 182.500 56.310 182.200 L 51.119 181.900 50.810 194.038 M 301.250 197.748 L 286 198.052 286 202.526 L 286 207 303 207 L 320 207 320 202 C 320 197.820, 319.713 197.036, 318.250 197.222 C 317.288 197.344, 309.637 197.581, 301.250 197.748 M 70.459 220.880 C 62.021 224.712, 59.445 231.008, 60.181 246 L 60.500 252.500 85 252.361 L 109.500 252.223 109.805 247.611 L 110.110 243 91.555 243 C 75.728 243, 73 242.779, 73 241.500 C 73 240.221, 75.722 240, 91.500 240 L 110 240 110 235.500 L 110 231 91.750 230.970 C 67.475 230.929, 69.083 228.674, 93.750 228.164 L 110 227.828 110 223.414 L 110 219 92.250 219.022 C 77.195 219.041, 73.886 219.323, 70.459 220.880 M 115.405 220.387 C 112.604 227.687, 114.408 228.484, 134.388 228.773 L 153.275 229.045 152.700 234.617 C 151.897 242.397, 150.912 242.930, 137.250 242.968 L 126 243 126 237.448 C 126 231.895, 126 231.895, 120.750 232.198 L 115.500 232.500 115.215 242.750 L 114.930 253 132.786 253 C 160.581 253, 164.633 250.119, 165.132 230 L 165.392 219.500 140.672 219.232 C 120.043 219.009, 115.860 219.200, 115.405 220.387 M 184.358 219.954 C 174.070 222.407, 170.825 227.517, 170.200 242.250 L 169.743 253 194.872 253 L 220 253 220 243.448 L 220 233.895 214.750 234.198 C 209.500 234.500, 209.500 234.500, 209.207 239 L 208.914 243.500 195.957 243.194 L 183 242.889 183 238.136 C 183 229.700, 183.342 229.546, 202.917 229.184 L 220 228.868 220 223.934 L 220 219 203.750 219.102 C 194.813 219.159, 186.086 219.542, 184.358 219.954 M 234.078 221.318 C 226.428 225.231, 225.500 227.341, 225.500 240.820 L 225.500 252.500 249.789 252.500 C 276.681 252.500, 275.807 252.732, 274.833 245.852 C 274.500 243.500, 274.500 243.500, 255.750 243.228 C 239.997 242.999, 237 242.720, 237 241.478 C 237 240.227, 239.845 240, 255.500 240 L 274 240 274 235.500 L 274 231 255.750 230.970 C 231.568 230.929, 233.219 228.751, 258 228 L 274.500 227.500 274.807 223.250 L 275.115 219 256.807 219.028 C 239.795 219.054, 238.187 219.216, 234.078 221.318 M 149 259.067 C 149 259.669, 148.153 259.866, 147.061 259.519 C 144.083 258.574, 142.922 261.794, 143.772 268.642 C 144.752 276.530, 152 278.712, 152 271.119 C 152 267.343, 153.365 265.032, 154.768 266.434 C 155.116 266.783, 155.424 268.741, 155.451 270.784 C 155.500 274.500, 155.500 274.500, 164.500 274.500 C 174.307 274.500, 173.575 274.987, 173.894 268.250 C 174.114 263.584, 177 265.743, 177 270.573 C 177 274.396, 177.287 275.089, 178.750 274.796 C 181.048 274.336, 181.219 264.383, 178.954 262.950 C 175.457 260.738, 170.008 261.819, 169.884 264.750 C 169.795 266.858, 169.651 267.033, 169.268 265.500 C 168.355 261.846, 161.953 260.475, 160.225 263.563 C 159.431 264.981, 159.229 264.981, 158.052 263.563 C 157.339 262.703, 155.685 262, 154.378 262 C 152.667 262, 152 261.439, 152 260 C 152 258.889, 151.333 258, 150.500 258 C 149.675 258, 149 258.480, 149 259.067 M 94.611 262.722 C 92.871 264.463, 94.014 275, 95.943 275 C 97.506 275, 97.945 274.187, 98.193 270.828 C 98.632 264.861, 101 264.515, 101 270.417 C 101 276.590, 103.742 276.943, 104.193 270.828 C 104.632 264.861, 107 264.515, 107 270.417 C 107 275.042, 108.313 276.287, 110.687 273.913 C 111.470 273.130, 111.962 273.130, 112.446 273.913 C 112.816 274.511, 114.415 275, 116 275 C 117.585 275, 119.184 274.511, 119.554 273.913 C 120.038 273.130, 120.530 273.130, 121.313 273.913 C 123.565 276.165, 125 275.054, 125 271.059 C 125 266.444, 126.657 264.628, 126.784 269.104 C 127.037 278.005, 138 277.339, 138 268.422 C 138 262.704, 126.361 259.016, 121.339 263.143 C 120.594 263.756, 119.946 263.722, 119.530 263.049 C 118.542 261.451, 113.412 261.799, 111.948 263.563 C 110.832 264.907, 110.537 264.924, 109.843 263.684 C 109.023 262.218, 95.941 261.392, 94.611 262.722 M 187.736 263.407 C 183.518 267.625, 186.229 274.486, 192.238 274.800 C 197.975 275.099, 197.975 275.099, 197.349 270.300 C 196.299 262.248, 191.986 259.157, 187.736 263.407 M 203.557 264.223 C 202.701 265.445, 202 267.370, 202 268.500 C 202 269.630, 202.701 271.555, 203.557 272.777 C 204.429 274.023, 204.649 275, 204.057 275 C 201.986 275, 203.043 278.063, 205.500 279.182 C 207.315 280.009, 208.651 280.024, 210.377 279.238 C 212.045 278.478, 213.070 278.470, 213.810 279.210 C 215.680 281.080, 218.044 279.152, 220.494 273.762 C 222.834 268.612, 222.886 268.570, 222.942 271.823 C 223.035 277.148, 226.407 275.768, 226.807 270.241 C 226.977 267.909, 227.513 266, 228 266 C 228.487 266, 229.023 267.909, 229.193 270.241 C 229.637 276.367, 232.751 276.872, 233.189 270.889 C 233.630 264.878, 236 264.480, 236 270.417 C 236 275.580, 238.495 277.033, 239.149 272.250 C 240.323 263.655, 239.256 262.523, 229.703 262.234 C 220.907 261.969, 220.907 261.969, 219.772 265.224 L 218.638 268.478 217.316 265.239 C 215.580 260.985, 206.304 260.300, 203.557 264.223" stroke="none" fill="#3c4243" fill-rule="evenodd"/></svg>